<svg xmlns="http://www.w3.org/2000/svg" id="baseline-thumb_up-24px" width="29" height="29" viewBox="0 0 29 29">
    <path id="Path_83" d="M0 0h29v29H0z" fill="none" data-name="Path 83"/>
    <path id="Path_84" d="M1 26h4.909V11H1zm27-13.75a2.485 2.485 0 0 0-2.455-2.5H17.8l1.166-5.712.037-.4a1.9 1.9 0 0 0-.54-1.325L17.163 1 9.088 9.237A2.467 2.467 0 0 0 8.364 11v12.5a2.485 2.485 0 0 0 2.454 2.5h11.046a2.438 2.438 0 0 0 2.258-1.525l3.706-8.812A2.51 2.51 0 0 0 28 14.75z" fill="#fff" data-name="Path 84"/>
</svg>
