<svg xmlns="http://www.w3.org/2000/svg" id="baseline-face-24px_1_" width="22" height="22" data-name="baseline-face-24px (1)" viewBox="0 0 22 22">
    <path id="Path_77" d="M8.3 10.775A1.125 1.125 0 1 0 9.425 11.9 1.125 1.125 0 0 0 8.3 10.775zm5.4 0a1.125 1.125 0 1 0 1.125 1.125 1.125 1.125 0 0 0-1.125-1.125zM11 2a9 9 0 1 0 9 9 9 9 0 0 0-9-9zm0 16.2A7.21 7.21 0 0 1 3.8 11a7.3 7.3 0 0 1 .045-.774 9.056 9.056 0 0 0 4.689-4.833A8.977 8.977 0 0 0 15.878 9.2a8.784 8.784 0 0 0 2.022-.234A7.189 7.189 0 0 1 11 18.2z" fill="#fff" data-name="Path 77"/>
    <path id="Path_78" d="M0 0h22v22H0z" fill="none" data-name="Path 78"/>
</svg>
