<svg xmlns="http://www.w3.org/2000/svg" id="brazil" width="39.565" height="39.565" viewBox="0 0 39.565 39.565">
    <defs>
        <style>
            .cls-1{fill:#73af00}.cls-1,.cls-2,.cls-3,.cls-4{fill-rule:evenodd}.cls-2{fill:#ffe15a}.cls-3{fill:#41479b}.cls-4{fill:#f8f8f9}.cls-5{fill:none}
        </style>
    </defs>
    <g id="Layer_x0020_1" transform="translate(4.946 10.062)">
        <g id="_531987256">
            <path id="_498778376" d="M30.016 21.178H1.365a.512.512 0 0 1-.512-.512V2.248a.512.512 0 0 1 .512-.512h28.651a.512.512 0 0 1 .512.512v18.418a.512.512 0 0 1-.512.512z" class="cls-1" transform="translate(-.853 -1.736)"/>
            <path id="_498778496" d="M12.493 2.267L1.71 8.831a.512.512 0 0 0 0 .874l10.783 6.564a.511.511 0 0 0 .532 0L23.809 9.7a.511.511 0 0 0 0-.874L13.025 2.267a.511.511 0 0 0-.532 0z" class="cls-2" transform="translate(2.078 .453)"/>
            <path id="_498778352" d="M10.893 6.8A4.093 4.093 0 1 1 6.8 2.707 4.093 4.093 0 0 1 10.893 6.8z" class="cls-3" transform="translate(8.037 2.921)"/>
            <path id="_498778304" d="M3.172 3.055A4.072 4.072 0 0 0 2.731 4.1a10.607 10.607 0 0 1 7.762 2.54 4.061 4.061 0 0 0 .266-1.131 11.691 11.691 0 0 0-7.587-2.454z" class="cls-4" transform="translate(8.153 4.571)"/>
            <path id="_498778280" d="M3.929 3.681l.109.327h.344a.046.046 0 0 1 .027.084l-.277.2.1.328a.046.046 0 0 1-.071.052l-.28-.2-.28.2a.046.046 0 0 1-.071-.052l.1-.328-.277-.2a.046.046 0 0 1 .027-.084h.344l.109-.327a.046.046 0 0 1 .096 0z" class="cls-4" transform="translate(11.078 7.437)"/>
            <path id="_498777752" d="M3.883 3.812l.047.14h.148a.02.02 0 0 1 .012.036l-.119.088.045.141a.02.02 0 0 1-.031.022l-.121-.086-.121.086a.02.02 0 0 1-.03-.022l.045-.141-.119-.088a.02.02 0 0 1 .012-.036H3.8l.047-.14a.02.02 0 0 1 .036 0z" class="cls-4" transform="translate(12.462 8.151)"/>
            <path id="_498777680" d="M3.552 3.558L3.6 3.7h.148a.02.02 0 0 1 .012.036l-.119.088.045.141a.02.02 0 0 1-.031.022L3.533 3.9l-.121.086a.02.02 0 0 1-.031-.022l.045-.141-.119-.088a.02.02 0 0 1 .012-.035h.148l.047-.141a.02.02 0 0 1 .038 0z" class="cls-4" transform="translate(10.876 6.938)"/>
            <path id="_498777920" d="M3.1 3.529l.047.14H3.3a.02.02 0 0 1 .012.036l-.119.088.045.141a.02.02 0 0 1-.031.022l-.121-.086-.121.086a.02.02 0 0 1-.031-.022l.045-.141-.119-.088a.02.02 0 0 1 .012-.036h.148l.047-.14a.02.02 0 0 1 .033 0z" class="cls-4" transform="translate(8.727 6.797)"/>
            <path id="_498778112" d="M3.479 3.8l.047.141h.148a.02.02 0 0 1 .012.036l-.119.088.045.141a.02.02 0 0 1-.031.022l-.121-.082-.121.086a.02.02 0 0 1-.031-.022l.045-.141-.119-.088a.02.02 0 0 1 .012-.036h.148l.047-.145a.02.02 0 0 1 .038 0z" class="cls-4" transform="translate(10.524 8.111)"/>
            <path id="_498777848" d="M3.234 3.51l.038.115h.121a.016.016 0 0 1 .01.029l-.1.072.037.116a.016.016 0 0 1-.025.018l-.1-.07-.1.07a.016.016 0 0 1-.015-.017l.037-.116-.1-.072a.016.016 0 0 1 .01-.029h.121L3.2 3.51a.016.016 0 0 1 .034 0z" class="cls-4" transform="translate(9.573 6.718)"/>
            <path id="_498777872" d="M3.906 3.1l.048.144h.151a.021.021 0 0 1 .012.037L4 3.375l.046.145a.02.02 0 0 1-.031.023l-.123-.088-.123.088a.02.02 0 0 1-.031-.023l.046-.145-.122-.09a.021.021 0 0 1 .012-.037h.151l.042-.148a.02.02 0 0 1 .039 0z" class="cls-4" transform="translate(12.544 4.751)"/>
            <path id="_498777704" d="M3.095 3.389l.039.115h.121a.016.016 0 0 1 .01.029l-.1.072.037.116a.016.016 0 0 1-.025.018l-.1-.07-.1.07a.016.016 0 0 1-.025-.018l.036-.116-.1-.072A.016.016 0 0 1 2.9 3.5h.121l.039-.115a.016.016 0 0 1 .031 0z" class="cls-4" transform="translate(8.903 6.136)"/>
            <path id="_498777800" d="M3.284 3.673l.058.174h.184a.025.025 0 0 1 .014.044L3.392 4l.055.175a.025.025 0 0 1-.037.025l-.15-.1-.149.1a.025.025 0 0 1-.038-.028L3.128 4l-.148-.109a.025.025 0 0 1 .014-.044h.184l.058-.174a.025.025 0 0 1 .047 0z" class="cls-4" transform="translate(9.299 7.472)"/>
            <path id="_531986152" d="M3.965 3.816L4 3.925h.115a.016.016 0 0 1 .009.028l-.093.069.035.11a.015.015 0 0 1-.024.017l-.094-.067-.094.067a.016.016 0 0 1-.024-.017l.035-.11-.093-.069a.016.016 0 0 1 .009-.028H3.9l.037-.109a.016.016 0 0 1 .03 0z" class="cls-4" transform="translate(13.126 8.184)"/>
            <path id="_531994648" d="M4.081 3.673l.047.141h.148a.02.02 0 0 1 .012.036l-.119.088.045.141a.02.02 0 0 1-.031.022l-.121-.086-.12.085a.02.02 0 0 1-.031-.022l.045-.141-.119-.088a.02.02 0 0 1 .012-.036H4l.047-.141a.02.02 0 0 1 .038 0z" class="cls-4" transform="translate(13.414 7.489)"/>
        </g>
    </g>
    <path id="Rectangle_170" d="M0 0h39.565v39.565H0z" class="cls-5" data-name="Rectangle 170"/>
</svg>
